<?xml version="1.0" standalone="no"?>
<!DOCTYPE svg PUBLIC "-//W3C//DTD SVG 20010904//EN"
 "http://www.w3.org/TR/2001/REC-SVG-20010904/DTD/svg10.dtd">
<svg version="1.0" xmlns="http://www.w3.org/2000/svg"
 width="424.000000pt" height="186.000000pt" viewBox="0 0 424.000000 186.000000"
 preserveAspectRatio="xMidYMid meet">

<g transform="translate(0.000000,186.000000) scale(0.100000,-0.100000)"
fill="#000000" stroke="none">
<path d="M1863 1780 c0 -41 2 -58 4 -37 2 20 2 54 0 75 -2 20 -4 3 -4 -38z"/>
<path d="M165 1784 c-53 -19 -62 -30 -36 -43 17 -9 20 -18 15 -39 -4 -15 -11
-32 -15 -38 -5 -6 -6 -13 -4 -16 3 -3 -1 -66 -10 -139 -8 -74 -18 -204 -20
-289 -9 -275 -14 -998 -8 -1076 l6 -77 101 9 c154 13 296 11 591 -10 268 -18
474 -18 841 0 l131 7 7 61 c9 83 7 229 -3 239 -5 5 -19 7 -32 5 -23 -3 -24 -7
-27 -85 l-3 -82 -476 -1 c-262 0 -479 -2 -481 -5 -3 -3 211 -5 476 -5 l482 0
0 -36 c0 -29 -3 -35 -16 -30 -9 3 -19 6 -24 6 -5 0 -11 8 -13 18 -4 15 -5 15
-6 0 -1 -15 -42 -16 -554 -12 -303 3 -563 6 -577 9 -14 2 -96 4 -183 4 l-158
1 4 781 5 781 359 1 c376 0 1149 -12 1171 -18 9 -3 12 -36 12 -120 0 -106 1
-115 19 -115 10 0 22 8 26 18 10 27 28 272 20 280 -8 8 -604 22 -1175 26 -330
3 -412 1 -445 -10z"/>
<path d="M1582 1653 l57 -4 4 -72 3 -72 2 78 2 77 -62 -2 -63 -2 57 -3z"/>
<path d="M223 1310 c0 -41 2 -58 4 -37 2 20 2 54 0 75 -2 20 -4 3 -4 -38z"/>
<path d="M1455 1370 c-3 -6 -10 -139 -14 -298 -7 -259 -10 -292 -29 -334 -11
-26 -32 -54 -46 -64 -24 -15 -28 -15 -51 0 -23 15 -29 28 -37 81 -3 19 -10 20
-103 17 -55 -2 -104 -8 -110 -13 -13 -13 10 -140 34 -187 38 -74 100 -111 200
-119 132 -11 248 52 300 163 50 105 62 192 68 478 5 223 3 270 -8 277 -19 12
-196 11 -204 -1z m110 -319 c-3 -6 -11 -11 -17 -11 -6 0 -6 6 2 15 14 17 26
13 15 -4z m65 -35 c0 -2 -7 -9 -15 -16 -12 -10 -15 -10 -15 4 0 9 7 16 15 16
8 0 15 -2 15 -4z m-83 -32 c-3 -3 -12 -4 -19 -1 -8 3 -5 6 6 6 11 1 17 -2 13
-5z m76 -40 c-3 -15 -20 -15 -26 0 -4 9 0 13 11 12 9 -2 16 -7 15 -12z m-2
-104 c5 0 9 -5 9 -12 0 -6 -8 -3 -20 7 -11 10 -16 23 -12 29 4 7 8 5 10 -6 2
-10 8 -18 13 -18z m-81 -146 c0 -8 -4 -12 -10 -9 -5 3 -10 10 -10 16 0 5 5 9
10 9 6 0 10 -7 10 -16z m-70 -74 c0 -5 -4 -10 -10 -10 -5 0 -10 5 -10 10 0 6
5 10 10 10 6 0 10 -4 10 -10z"/>
<path d="M12 1315 c0 -16 2 -22 5 -12 2 9 2 23 0 30 -3 6 -5 -1 -5 -18z"/>
<path d="M14 1060 c0 -74 1 -105 3 -67 2 37 2 97 0 135 -2 37 -3 6 -3 -68z"/>
<path d="M224 1060 c0 -58 1 -81 3 -52 2 28 2 76 0 105 -2 28 -3 5 -3 -53z"/>
<path d="M2387 953 c-2 -5 -19 -55 -37 -113 -36 -119 -47 -137 -56 -94 -3 16
-16 67 -27 114 l-22 85 -39 3 c-67 6 -67 19 -5 -273 17 -77 32 -150 35 -162 4
-20 10 -23 58 -23 l54 0 42 133 c23 72 53 166 66 207 13 41 24 79 24 86 0 6
-16 15 -35 21 -29 9 -35 9 -35 -3 0 -8 -5 -14 -11 -14 -6 0 -8 9 -4 20 6 19 1
28 -8 13z"/>
<path d="M1892 942 c-24 -2 -36 -11 -47 -32 -23 -44 -100 -256 -123 -337 -23
-81 -22 -83 52 -83 41 0 44 2 58 39 14 34 21 40 57 46 23 4 45 5 48 2 2 -3 7
-24 10 -46 l6 -41 58 0 c41 0 59 4 59 13 0 17 -36 218 -54 305 -27 123 -43
142 -124 134z m30 -222 c3 -30 0 -35 -19 -38 -27 -4 -27 -2 -11 50 13 44 25
39 30 -12z m-59 -25 c-3 -9 -8 -14 -10 -11 -3 3 -2 9 2 15 9 16 15 13 8 -4z
m150 -102 c3 -5 8 -24 12 -43 l7 -35 -21 22 c-21 22 -29 63 -12 63 6 0 12 -3
14 -7z"/>
<path d="M2757 943 c-15 -2 -31 -12 -36 -22 -18 -32 -109 -285 -127 -349 -20
-75 -14 -84 55 -80 40 3 44 6 55 38 9 28 18 36 49 43 54 13 67 5 67 -43 l0
-40 60 0 c68 0 68 0 51 87 -5 26 -17 91 -26 143 -25 139 -43 198 -68 215 -21
15 -28 16 -80 8z m38 -225 c7 -36 6 -38 -19 -38 -29 0 -32 11 -15 59 13 38 25
31 34 -21z m-70 -36 c-15 -16 -16 -15 -4 12 7 15 15 23 17 16 3 -7 -3 -19 -13
-28z m171 -131 l7 -34 -22 22 c-15 15 -20 29 -16 43 9 26 23 12 31 -31z"/>
<path d="M3153 935 c-40 -8 -77 -16 -82 -20 -14 -8 -19 -64 -26 -257 l-6 -168
50 0 51 0 1 48 c1 72 9 83 68 99 29 7 66 22 82 34 37 26 69 88 69 131 0 65
-52 131 -110 142 -14 2 -58 -2 -97 -9z m97 -134 c0 -31 -21 -54 -63 -70 -35
-13 -42 1 -33 64 6 38 11 44 34 47 41 6 62 -9 62 -41z m-170 -268 c0 -18 -4
-33 -9 -33 -17 0 -22 19 -15 56 8 43 24 27 24 -23z"/>
<path d="M3637 943 c-21 -3 -32 -14 -47 -46 -68 -152 -137 -363 -127 -391 5
-12 20 -16 56 -16 50 0 50 0 62 39 11 36 15 40 56 46 25 3 47 4 50 2 2 -3 7
-24 10 -46 l6 -41 58 0 c66 0 65 -1 50 77 -6 26 -17 89 -26 138 -26 149 -45
214 -68 230 -21 15 -28 16 -80 8z m33 -225 c0 -31 -4 -38 -20 -38 -23 0 -24 8
-8 62 13 46 28 33 28 -24z m106 -167 l7 -34 -21 21 c-12 12 -22 34 -22 49 0
24 2 26 15 13 8 -9 18 -31 21 -49z"/>
<path d="M3993 937 c-47 -10 -53 -13 -54 -36 0 -14 -2 -35 -5 -46 -2 -11 -7
-98 -10 -192 l-7 -173 64 0 c81 0 133 24 182 81 44 51 67 120 67 203 0 74 -22
122 -69 153 -37 25 -78 27 -168 10z m130 -136 c17 -69 -35 -191 -83 -191 -17
0 -18 8 -13 103 2 56 6 108 9 115 2 9 17 12 41 10 33 -3 38 -7 46 -37z"/>
<path d="M223 835 c0 -33 2 -45 4 -27 2 18 2 45 0 60 -2 15 -4 0 -4 -33z"/>
<path d="M13 800 c0 -25 2 -35 4 -22 2 12 2 32 0 45 -2 12 -4 2 -4 -23z"/>
<path d="M223 715 c0 -22 2 -30 4 -17 2 12 2 30 0 40 -3 9 -5 -1 -4 -23z"/>
<path d="M13 620 c0 -25 2 -35 4 -22 2 12 2 32 0 45 -2 12 -4 2 -4 -23z"/>
<path d="M221 644 c0 -11 3 -14 6 -6 3 7 2 16 -1 19 -3 4 -6 -2 -5 -13z"/>
<path d="M221 594 c0 -11 3 -14 6 -6 3 7 2 16 -1 19 -3 4 -6 -2 -5 -13z"/>
<path d="M223 500 c0 -41 2 -58 4 -37 2 20 2 54 0 75 -2 20 -4 3 -4 -38z"/>
<path d="M224 285 l1 -80 78 -1 77 0 -75 3 -74 4 -4 77 -3 77 0 -80z"/>
<path d="M1642 345 c0 -16 2 -22 5 -12 2 9 2 23 0 30 -3 6 -5 -1 -5 -18z"/>
<path d="M1862 345 c0 -16 2 -22 5 -12 2 9 2 23 0 30 -3 6 -5 -1 -5 -18z"/>
<path d="M1813 203 c9 -2 25 -2 35 0 9 3 1 5 -18 5 -19 0 -27 -2 -17 -5z"/>
<path d="M12 63 l-2 -53 163 2 162 2 -157 3 -157 4 -4 47 -3 47 -2 -52z"/>
<path d="M358 13 c7 -3 16 -2 19 1 4 3 -2 6 -13 5 -11 0 -14 -3 -6 -6z"/>
<path d="M462 13 c32 -2 84 -2 115 0 32 2 6 3 -57 3 -63 0 -89 -1 -58 -3z"/>
<path d="M1093 13 c9 -2 25 -2 35 0 9 3 1 5 -18 5 -19 0 -27 -2 -17 -5z"/>
<path d="M1288 13 c6 -2 18 -2 25 0 6 3 1 5 -13 5 -14 0 -19 -2 -12 -5z"/>
</g>
</svg>
